<?xml version="1.0" encoding="UTF-8" standalone="no"?>
<!-- Created with Inkscape (http://www.inkscape.org/) -->

<svg
   xmlns:dc="http://purl.org/dc/elements/1.1/"
   xmlns:cc="http://creativecommons.org/ns#"
   xmlns:rdf="http://www.w3.org/1999/02/22-rdf-syntax-ns#"
   xmlns:svg="http://www.w3.org/2000/svg"
   xmlns="http://www.w3.org/2000/svg"
   xmlns:sodipodi="http://sodipodi.sourceforge.net/DTD/sodipodi-0.dtd"
   xmlns:inkscape="http://www.inkscape.org/namespaces/inkscape"
   width="42.606232mm"
   height="41.555687mm"
   viewBox="0 0 42.606232 41.555687"
   version="1.1"
   id="svg8"
   inkscape:version="0.92.5 (2060ec1f9f, 2020-04-08)"
   sodipodi:docname="black.svg">
  <defs
     id="defs2" />
  <sodipodi:namedview
     id="base"
     pagecolor="#ffffff"
     bordercolor="#666666"
     borderopacity="1.0"
     inkscape:pageopacity="0.0"
     inkscape:pageshadow="2"
     inkscape:zoom="0.35"
     inkscape:cx="-278.05575"
     inkscape:cy="-178.61242"
     inkscape:document-units="mm"
     inkscape:current-layer="layer1"
     showgrid="false"
     fit-margin-top="0"
     fit-margin-left="0"
     fit-margin-right="0"
     fit-margin-bottom="0"
     inkscape:window-width="1848"
     inkscape:window-height="1016"
     inkscape:window-x="72"
     inkscape:window-y="27"
     inkscape:window-maximized="1" />
  <metadata
     id="metadata5">
    <rdf:RDF>
      <cc:Work
         rdf:about="">
        <dc:format>image/svg+xml</dc:format>
        <dc:type
           rdf:resource="http://purl.org/dc/dcmitype/StillImage" />
        <dc:title></dc:title>
      </cc:Work>
    </rdf:RDF>
  </metadata>
  <g
     inkscape:label="Layer 1"
     inkscape:groupmode="layer"
     id="layer1"
     transform="translate(-43.708797,-61.531681)">
    <path
       inkscape:connector-curvature="0"
       id="path13"
       d="m 65.011887,61.531681 c -11.76431,0 -21.30309,9.53878 -21.30309,21.30447 0,9.412001 6.10334,17.397729 14.56862,20.214439 1.06385,0.19706 1.45521,-0.46164 1.45521,-1.02526 0,-0.50712 -0.0193,-2.185565 -0.0289,-3.965994 -5.92694,1.288468 -7.17682,-2.513541 -7.17682,-2.513541 -0.97014,-2.462552 -2.36609,-3.11712 -2.36609,-3.11712 -1.93339,-1.321538 0.14607,-1.295355 0.14607,-1.295355 2.13871,0.150204 3.26595,2.196592 3.26595,2.196592 1.89894,3.256304 4.98298,2.315101 6.19842,1.770777 0.19154,-1.378038 0.74413,-2.317859 1.35323,-2.849782 -4.73219,-0.538811 -9.7069,-2.364714 -9.7069,-10.528211 0,-2.326128 0.83233,-4.226443 2.19521,-5.71748 -0.22049,-0.537435 -0.94947,-2.703711 0.20671,-5.637554 0,0 1.78869,-0.573264 5.85942,2.182812 1.7005,-0.471289 3.52226,-0.708312 5.333,-0.71658 1.81075,0.0083 3.63389,0.245291 5.33714,0.71658 4.06522,-2.756076 5.85253,-2.182812 5.85253,-2.182812 1.15893,2.933843 0.42995,5.100119 0.20809,5.637554 1.36563,1.491037 2.19246,3.391352 2.19246,5.71748 0,8.182791 -4.98299,9.983886 -9.72758,10.511674 0.76482,0.661459 1.44557,1.958192 1.44557,3.945324 0,2.849782 -0.0248,5.144216 -0.0248,5.845636 0,0.56776 0.38309,1.23197 1.46347,1.02251 8.45978,-2.82085 14.55622,-10.802445 14.55622,-20.211689 -1e-5,-11.76569 -9.53741,-21.30447 -21.3031,-21.30447"
       style="fill:#191714;fill-opacity:1;fill-rule:evenodd;stroke:none;stroke-width:0.35277775" />
    <path
       inkscape:connector-curvature="0"
       id="path15"
       d="m -236.24064,67.929517 c -0.0469,0.106109 -0.2136,0.136428 -0.36518,0.06477 -0.15435,-0.07028 -0.24116,-0.213596 -0.19155,-0.321083 0.0455,-0.107487 0.21222,-0.137803 0.36656,-0.06615 0.15571,0.07028 0.24391,0.216352 0.19017,0.32246"
       style="fill:#191714;fill-opacity:1;fill-rule:nonzero;stroke:none;stroke-width:0.35277775" />
    <path
       inkscape:connector-curvature="0"
       id="path17"
       d="m -235.37799,68.891389 c -0.10198,0.0937 -0.30041,0.05099 -0.43546,-0.09784 -0.13918,-0.148828 -0.16536,-0.347266 -0.062,-0.44373 0.10473,-0.0937 0.29765,-0.04961 0.43684,0.09922 0.13918,0.150207 0.16674,0.347266 0.0606,0.442352"
       style="fill:#191714;fill-opacity:1;fill-rule:nonzero;stroke:none;stroke-width:0.35277775" />
    <path
       inkscape:connector-curvature="0"
       id="path19"
       d="m -234.53739,70.117841 c -0.13091,0.09095 -0.34451,0.0055 -0.4768,-0.183277 -0.13091,-0.190169 -0.13091,-0.416168 0.003,-0.507119 0.13229,-0.09095 0.34313,-0.0097 0.4768,0.177766 0.12954,0.192926 0.12954,0.420304 -0.003,0.51263"
       style="fill:#191714;fill-opacity:1;fill-rule:nonzero;stroke:none;stroke-width:0.35277775" />
    <path
       inkscape:connector-curvature="0"
       id="path21"
       d="m -233.38673,71.302958 c -0.11713,0.129532 -0.36655,0.09508 -0.54845,-0.08131 -0.18604,-0.170878 -0.23841,-0.414787 -0.12127,-0.544324 0.11851,-0.128157 0.36931,-0.09233 0.55259,0.0813 0.18466,0.172255 0.24116,0.417545 0.11713,0.544328"
       style="fill:#191714;fill-opacity:1;fill-rule:nonzero;stroke:none;stroke-width:0.35277775" />
    <path
       inkscape:connector-curvature="0"
       id="path23"
       d="m -231.79923,71.991975 c -0.0524,0.166743 -0.29214,0.242533 -0.5333,0.172254 -0.24115,-0.07303 -0.39825,-0.268718 -0.35002,-0.438219 0.051,-0.16674 0.29077,-0.246665 0.53468,-0.170873 0.23978,0.07304 0.39825,0.267338 0.34864,0.436838"
       style="fill:#191714;fill-opacity:1;fill-rule:nonzero;stroke:none;stroke-width:0.35277775" />
    <path
       inkscape:connector-curvature="0"
       id="path25"
       d="m -230.05601,72.120131 c 0.005,0.175014 -0.19844,0.321085 -0.45199,0.32384 -0.25494,0.0055 -0.46165,-0.136428 -0.4644,-0.308682 0,-0.177768 0.20119,-0.322458 0.45475,-0.326594 0.25356,-0.0055 0.46164,0.136428 0.46164,0.311436"
       style="fill:#191714;fill-opacity:1;fill-rule:nonzero;stroke:none;stroke-width:0.35277775" />
    <path
       inkscape:connector-curvature="0"
       id="path27"
       d="m -228.43406,71.843147 c 0.0303,0.172254 -0.14607,0.347265 -0.39687,0.394118 -0.24805,0.04548 -0.4768,-0.06063 -0.5085,-0.230132 -0.0303,-0.17639 0.14883,-0.351398 0.3955,-0.396875 0.25218,-0.0441 0.47818,0.05926 0.50987,0.232889"
       style="fill:#191714;fill-opacity:1;fill-rule:nonzero;stroke:none;stroke-width:0.35277775" />
  </g>
</svg>
