<?xml version="1.0" encoding="UTF-8" standalone="no"?>
<!-- Created with Inkscape (http://www.inkscape.org/) -->

<svg
   xmlns:dc="http://purl.org/dc/elements/1.1/"
   xmlns:cc="http://creativecommons.org/ns#"
   xmlns:rdf="http://www.w3.org/1999/02/22-rdf-syntax-ns#"
   xmlns:svg="http://www.w3.org/2000/svg"
   xmlns="http://www.w3.org/2000/svg"
   xmlns:sodipodi="http://sodipodi.sourceforge.net/DTD/sodipodi-0.dtd"
   xmlns:inkscape="http://www.inkscape.org/namespaces/inkscape"
   width="256"
   height="256"
   viewBox="0 0 67.733332 67.733331"
   version="1.1"
   id="svg8"
   inkscape:version="0.92.4 (f8dce91, 2019-08-02)"
   sodipodi:docname="gsoc.svg"
   inkscape:export-filename="/home/uniqueg/Dropbox/repos/__private__/logos/gsoc.png"
   inkscape:export-xdpi="300"
   inkscape:export-ydpi="300">
  <defs
     id="defs2" />
  <sodipodi:namedview
     id="base"
     pagecolor="#ffffff"
     bordercolor="#666666"
     borderopacity="1.0"
     inkscape:pageopacity="0.0"
     inkscape:pageshadow="2"
     inkscape:zoom="1.979899"
     inkscape:cx="-11.413777"
     inkscape:cy="57.80668"
     inkscape:document-units="mm"
     inkscape:current-layer="layer1"
     showgrid="false"
     fit-margin-top="0"
     fit-margin-left="0"
     fit-margin-right="0"
     fit-margin-bottom="0"
     units="px"
     inkscape:window-width="1853"
     inkscape:window-height="1025"
     inkscape:window-x="67"
     inkscape:window-y="27"
     inkscape:window-maximized="1" />
  <metadata
     id="metadata5">
    <rdf:RDF>
      <cc:Work
         rdf:about="">
        <dc:format>image/svg+xml</dc:format>
        <dc:type
           rdf:resource="http://purl.org/dc/dcmitype/StillImage" />
        <dc:title></dc:title>
      </cc:Work>
    </rdf:RDF>
  </metadata>
  <g
     inkscape:label="Layer 1"
     inkscape:groupmode="layer"
     id="layer1"
     transform="translate(-106.97908,11.067414)">
    <g
       transform="matrix(0.38572513,0,0,0.3855056,103.81613,-14.151459)"
       id="g8"
       style="stroke-width:0.53195286">
      <path
         style="fill:#fbbc05;stroke-width:0.53195286"
         inkscape:connector-curvature="0"
         id="path4-9"
         d="M 158.1,33.7 H 121.7 L 96,8 70.3,33.7 H 33.9 V 70.1 L 8.2,95.9 33.9,121.6 V 158 H 70.3 L 96,183.7 121.7,158 h 36.4 V 121.6 L 183.8,95.9 158.1,70.2 Z m 0.6,62.2 c 0,34.6 -28.1,62.7 -62.7,62.7 -34.6,0 -62.7,-28.1 -62.7,-62.7 0,-34.6 28.1,-62.7 62.7,-62.7 34.6,0 62.7,28.1 62.7,62.7 z"
         class="st0" />
      <path
         style="fill:#fbbc05;stroke-width:0.53195286"
         inkscape:connector-curvature="0"
         id="path6-5"
         d="m 96,41.2 c -30.2,0 -54.7,24.5 -54.7,54.7 0,30.2 24.5,54.7 54.7,54.7 30.2,0 54.7,-24.5 54.7,-54.7 C 150.7,65.7 126.2,41.2 96,41.2 Z M 79.9,75.6 v 9 l -14.5,11.3 14.5,11.3 v 9 l -1,-0.7 L 57.4,98.7 56,97.6 v -3.4 l 1.4,-1.1 21.5,-16.7 z m 25.8,-5.2 -11.9,52.6 -0.1,0.4 h -7.4 l 0.4,-2 11.9,-52.5 0.1,-0.4 h 7.4 z m 30.3,27.2 -1.4,1.1 -21.6,16.7 -1,0.7 v -9 L 126.5,95.8 112,84.5 v -9 0 l 1,0.7 21.5,16.8 1.4,1.1 v 3.5 z"
         class="st0" />
    </g>
  </g>
  <style
     id="style2"
     type="text/css">
	.st0{fill:#FBBC05;}
</style>
</svg>
